<svg width="24" height="25" viewBox="0 0 24 25" fill="none" xmlns="http://www.w3.org/2000/svg">
<path d="M4.5 8.75H19.5L21 21.5H3L4.5 8.75ZM7.5 14H9V11H7.5V14ZM15 14H16.5V11H15V14ZM9 7.25H7.5C7.5 6.05653 7.97411 4.91193 8.81802 4.06802C9.66193 3.22411 10.8065 2.75 12 2.75C13.1935 2.75 14.3381 3.22411 15.182 4.06802C16.0259 4.91193 16.5 6.05653 16.5 7.25H15C15 6.45435 14.6839 5.69129 14.1213 5.12868C13.5587 4.56607 12.7956 4.25 12 4.25C11.2044 4.25 10.4413 4.56607 9.87868 5.12868C9.31607 5.69129 9 6.45435 9 7.25Z" fill="#1D1D1D"/>
</svg>
