<svg width="14" height="11" viewBox="0 0 14 11" fill="none" xmlns="http://www.w3.org/2000/svg">
<path d="M1.4 11C1.015 11 0.685533 10.8655 0.4116 10.5964C0.137667 10.3274 0.000466667 10.0036 0 9.625V1.375C0 0.996875 0.1372 0.673291 0.4116 0.40425C0.686 0.135208 1.01547 0.000458333 1.4 0H12.6C12.985 0 13.3147 0.13475 13.5891 0.40425C13.8635 0.67375 14.0005 0.997333 14 1.375V9.625C14 10.0031 13.863 10.3269 13.5891 10.5964C13.3152 10.8659 12.9855 11.0005 12.6 11H1.4ZM7 6.1875L12.6 2.75V1.375L7 4.8125L1.4 1.375V2.75L7 6.1875Z" fill="black"/>
</svg>
