<svg width="14" height="14" viewBox="0 0 14 14" fill="none" xmlns="http://www.w3.org/2000/svg">
<path d="M14 11.0568C14 11.2366 13.9673 11.4703 13.9008 11.7578C13.8355 12.0465 13.7655 12.2737 13.6932 12.4406C13.5532 12.7723 13.1483 13.1234 12.4775 13.4949C11.8557 13.8309 11.2397 14 10.6295 14C10.451 14 10.2748 13.9882 10.1022 13.9645C9.93066 13.9419 9.74051 13.9009 9.53051 13.8417C9.32284 13.7814 9.16651 13.734 9.06267 13.6974C8.96001 13.6618 8.77681 13.594 8.51081 13.4949C8.24715 13.3937 8.08385 13.3334 8.02318 13.314C7.37452 13.0835 6.79465 12.8078 6.28365 12.4901C5.44248 11.9657 4.56753 11.2495 3.65986 10.3417C2.75103 9.43277 2.03469 8.55724 1.51202 7.71616C1.19352 7.2057 0.918181 6.62632 0.686015 5.97586C0.666181 5.91663 0.606664 5.75402 0.507497 5.48909C0.40833 5.22309 0.340651 5.03894 0.304484 4.93663C0.265984 4.83432 0.218151 4.67815 0.158651 4.46922C0.0991507 4.26138 0.0572008 4.07079 0.0350342 3.8974C0.0117008 3.72617 0 3.55062 0 3.37077C0 2.76124 0.169164 2.14522 0.507497 1.52169C0.878497 0.85184 1.22965 0.448019 1.56215 0.309096C1.72665 0.235865 1.953 0.165857 2.24233 0.0990882C2.5305 0.032319 2.7638 0 2.9423 0C3.0368 0 3.10686 0.00970099 3.15236 0.0290856C3.27136 0.0689318 3.44749 0.320935 3.67966 0.786166C3.75316 0.912166 3.85116 1.09093 3.97716 1.32354C4.102 1.55508 4.21868 1.76508 4.32601 1.95462C4.43101 2.14308 4.53368 2.31968 4.63284 2.48661C4.65268 2.51353 4.71101 2.59539 4.80901 2.73431C4.90468 2.87431 4.97469 2.99278 5.02135 3.08863C5.06802 3.1834 5.09014 3.27816 5.09014 3.37077C5.09014 3.50431 4.99684 3.67016 4.80901 3.86723C4.61884 4.06754 4.41352 4.24954 4.19185 4.41431C3.97019 4.58123 3.76365 4.75679 3.57349 4.94202C3.38565 5.12833 3.29115 5.28124 3.29115 5.3997C3.29115 5.45893 3.30752 5.53324 3.34135 5.62262C3.37402 5.71309 3.40197 5.78201 3.4253 5.82724C3.44864 5.87355 3.49416 5.95325 3.56416 6.06525C3.63416 6.17725 3.67382 6.24076 3.67966 6.25584C4.18366 7.16368 4.76003 7.9423 5.40986 8.59169C6.05853 9.24 6.83668 9.81722 7.74668 10.3223C7.75952 10.3288 7.82253 10.3665 7.93453 10.4354C8.0477 10.5054 8.12819 10.5517 8.17486 10.5743C8.22036 10.598 8.28799 10.626 8.37666 10.6583C8.46649 10.6928 8.53997 10.7111 8.59947 10.7111C8.7208 10.7111 8.87247 10.6152 9.05797 10.4257C9.24464 10.2362 9.41967 10.0305 9.58534 9.8097C9.751 9.58678 9.93419 9.3811 10.1314 9.19371C10.332 9.00417 10.4977 8.9094 10.6295 8.9094C10.7217 8.9094 10.8161 8.93201 10.9141 8.97831C11.0098 9.0257 11.1265 9.09787 11.2653 9.19371C11.4053 9.28956 11.4893 9.34661 11.515 9.36707C11.6807 9.46615 11.858 9.56848 12.047 9.67617C12.236 9.78171 12.446 9.89693 12.6782 10.0229C12.9092 10.15 13.0888 10.2491 13.216 10.3223C13.6792 10.5528 13.9311 10.7283 13.9708 10.8489C13.9906 10.8952 14 10.9642 14 11.0568Z" fill="#090909"/>
</svg>
